HIERARCHY
ROOT Hips
{
    OFFSET 0.000000 0.000000 0.000000
    CHANNELS 6 Xposition Yposition Zposition Zrotation Yrotation Xrotation
    JOINT LeftUpLeg
    {
        OFFSET 8.740861 -9.108876 4.902500
        CHANNELS 3 Zrotation Yrotation Xrotation
        JOINT LeftLeg
        {
            OFFSET 12.704811 -34.906269 0.000000
            CHANNELS 3 Zrotation Yrotation Xrotation
            JOINT LeftFoot
            {
                OFFSET 13.565074 -37.269806 0.000000
                CHANNELS 3 Zrotation Yrotation Xrotation
                JOINT LeftToeBase
                {
                    OFFSET 0.984101 -2.703724 11.427257
                    CHANNELS 3 Zrotation Yrotation Xrotation
                    End Site
                    {
                        OFFSET 0.000000 0.000000 0.000000
                    }
                }
            }
        }
    }
    JOINT RightUpLeg
    {
        OFFSET -8.730137 -9.108876 4.902500
        CHANNELS 3 Zrotation Yrotation Xrotation
        JOINT RightLeg
        {
            OFFSET -12.876683 -35.378479 0.000000
            CHANNELS 3 Zrotation Yrotation Xrotation
            JOINT RightFoot
            {
                OFFSET -14.203343 -39.023407 0.000000
                CHANNELS 3 Zrotation Yrotation Xrotation
                JOINT RightToeBase
                {
                    OFFSET -0.853659 -2.345361 12.479204
                    CHANNELS 3 Zrotation Yrotation Xrotation
                    End Site
                    {
                        OFFSET 0.000000 0.000000 0.000000
                    }
                }
            }
        }
    }
    JOINT Spine
    {
        OFFSET -0.241975 12.765432 -1.450046
        CHANNELS 3 Zrotation Yrotation Xrotation
        JOINT Spine1
        {
            OFFSET 0.126886 12.891528 -0.572342
            CHANNELS 3 Zrotation Yrotation Xrotation
            JOINT Neck1
            {
                OFFSET -0.657234 7.817269 0.640357
                CHANNELS 3 Zrotation Yrotation Xrotation
                JOINT Head
                {
                    OFFSET 1.658494 7.710251 0.374901
                    CHANNELS 3 Zrotation Yrotation Xrotation
                    End Site
                    {
                        OFFSET 0.000000 0.000000 0.000000
                    }
                }
            }
            JOINT LeftShoulder
            {
                OFFSET 0.000000 0.000000 0.000000
                CHANNELS 3 Zrotation Yrotation Xrotation
                JOINT LeftArm
                {
                    OFFSET 19.847290 3.360789 -1.712850
                    CHANNELS 3 Zrotation Yrotation Xrotation
                    JOINT LeftForeArm
                    {
                        OFFSET 26.890203 -0.000000 0.000000
                        CHANNELS 3 Zrotation Yrotation Xrotation
                        JOINT LeftHand
                        {
                            OFFSET 17.709812 -0.000000 -0.000000
                            CHANNELS 3 Zrotation Yrotation Xrotation
                            End Site
                            {
                                OFFSET 0.000000 0.000000 0.000000
                            }
                        }
                    }
                }
            }
            JOINT RightShoulder
            {
                OFFSET 0.000000 0.000000 0.000000
                CHANNELS 3 Zrotation Yrotation Xrotation
                JOINT RightArm
                {
                    OFFSET -18.682400 4.753319 -2.056255
                    CHANNELS 3 Zrotation Yrotation Xrotation
                    JOINT RightForeArm
                    {
                        OFFSET -28.795528 -0.000000 -0.000000
                        CHANNELS 3 Zrotation Yrotation Xrotation
                        JOINT RightHand
                        {
                            OFFSET -18.246483 -0.000000 -0.000000
                            CHANNELS 3 Zrotation Yrotation Xrotation
                            End Site
                            {
                                OFFSET 0.000000 0.000000 0.000000
                            }
                        }
                    }
                }
            }
        }
    }
}
MOTION
Frames: 7
Frame Time: 0.016667
-212.417969 82.522255 -92.248680 23.942873 81.444412 21.932964 -25.529114 -5.023702 -3.759801 2.552400 9.932505 28.758400 0.635300 -13.129801 -15.814195 0.299700 3.520199 9.730600 18.141602 -4.227299 -9.358296 -5.025102 -13.412102 40.931210 -3.241899 -8.739705 -37.847820 -0.211500 -2.960601 8.169107 -1.649744 -6.887073 4.059838 0.473700 -1.951501 8.079200 -1.707053 0.541178 -2.818043 5.517300 0.182500 -0.110900 0.000000 0.000000 0.000000 -92.946007 5.137904 51.218204 127.453819 -53.972237 -91.779312 0.000000 0.000000 -27.171801 0.000000 0.000000 0.000000 90.427444 -1.813702 25.776808 -66.306427 57.768742 -39.634518 0.000000 0.000000 13.753503 
-212.318054 82.523949 -92.267319 24.120596 81.173988 22.244089 -25.979910 -6.149902 -3.309400 2.558801 9.944099 28.795900 0.792601 -11.955904 -16.808113 0.297800 3.509001 9.699306 17.860701 -4.498402 -9.529299 -4.996202 -13.379501 40.806427 -3.144601 -8.679906 -37.330414 -0.162300 -2.595801 7.155500 -1.799482 -6.944673 4.079245 1.263300 -2.025399 7.885702 -2.684807 1.334837 -3.017592 5.897000 0.411100 -0.003400 0.000000 0.000000 0.000000 -93.966293 5.809792 51.297211 127.829803 -53.834194 -92.083099 0.000000 0.000000 -26.661003 0.000000 0.000000 0.000000 89.583618 -1.949304 25.930296 -66.797997 57.864796 -40.050499 0.000000 0.000000 14.424409 
-212.214218 82.484436 -92.276909 24.603361 81.008705 22.815548 -26.274908 -6.583602 -3.085601 2.562002 9.949707 28.813904 0.881801 -11.517608 -17.453911 0.300400 3.523901 9.741004 17.628904 -4.711099 -9.712495 -5.037000 -13.425300 40.982216 -3.301702 -7.965497 -37.739700 -0.217800 -3.004300 8.290700 -1.760412 -7.367938 4.000820 1.034100 -2.130400 8.493500 -3.133873 1.865729 -3.428953 6.214399 0.559800 0.183100 0.000000 0.000000 0.000000 -94.188805 4.609603 50.943104 127.513046 -53.950634 -91.827271 0.000000 0.000000 -26.632109 0.000000 0.000000 0.000000 89.590103 -1.245100 26.575811 -66.717094 57.849197 -39.981987 0.000000 0.000000 14.828608 
-212.136871 82.437027 -92.268448 20.711302 80.610229 19.024309 -25.799809 -6.407902 -3.358403 2.632399 10.074700 29.218901 0.946900 -11.337400 -17.955799 0.334900 3.719300 10.288300 18.116909 -4.192101 -9.804501 -5.079600 -13.472900 41.165298 -3.273499 -7.923900 -37.578400 -0.196400 -2.853701 7.871704 -1.186772 -7.313163 4.145963 1.106500 -2.113301 8.235404 -3.677562 2.992510 -3.125079 6.566102 0.850600 0.711300 0.000000 0.000000 0.000000 -94.800209 4.492201 50.573704 127.401718 -53.991104 -91.737221 0.000000 0.000000 -27.183599 0.000000 0.000000 0.000000 89.394501 -1.445704 27.508101 -66.881241 57.880936 -40.121021 0.000000 0.000000 13.387300 
-211.981094 82.332039 -92.260544 19.460613 80.191795 17.805113 -25.775290 -6.307099 -3.526300 2.716901 10.222004 29.698715 1.012299 -11.293697 -18.481001 0.360300 3.856104 10.672304 18.063200 -4.318100 -10.086100 -5.179396 -13.582997 41.591999 -3.422201 -6.671703 -37.701508 -0.155000 -2.536899 6.992002 -1.060986 -7.106540 4.218019 0.775700 -2.029200 8.089902 -3.497188 3.730891 -2.627907 6.820302 1.027901 1.154700 0.000000 0.000000 0.000000 -94.643295 4.755196 50.914303 127.252617 -54.045219 -91.616516 0.000000 0.000000 -26.212099 0.000000 0.000000 0.000000 89.782608 -1.903898 28.003811 -67.445206 57.987698 -40.598923 0.000000 0.000000 12.608900 
-211.793137 82.142960 -92.313034 21.430733 79.824669 19.771421 -26.403208 -6.413400 -3.624700 2.821800 10.400803 30.284714 1.078501 -11.311601 -19.014307 0.403000 4.075400 11.289003 17.234901 -5.213504 -10.696700 -5.342898 -13.759802 42.283600 -3.515200 -5.724002 -37.727200 -0.168900 -2.647800 7.299707 -1.489559 -6.646235 4.248146 0.778900 -1.901401 8.286504 -3.547795 4.302722 -2.517289 7.134600 1.149700 1.770200 0.000000 0.000000 0.000000 -94.739319 4.391308 51.347206 127.190201 -54.067818 -91.565918 0.000000 0.000000 -26.755693 0.000000 0.000000 0.000000 89.957008 -2.047801 27.583199 -68.016121 58.092701 -41.083313 0.000000 0.000000 13.167800 
-211.683624 81.934113 -92.298927 18.213726 79.180290 16.645430 -26.120005 -6.520503 -3.957301 2.984000 10.669100 31.171700 1.198701 -11.168303 -19.923811 0.487100 4.475400 12.418097 17.528200 -4.984898 -11.147604 -5.537603 -13.964811 43.096615 -3.596703 -5.583701 -38.065811 -0.141000 -2.420000 6.667800 -1.021751 -6.263740 4.404179 0.192100 -1.745901 7.991904 -3.174591 4.451374 -3.532026 7.169100 1.255400 0.918700 0.000000 0.000000 0.000000 -94.407303 4.781301 50.951908 127.300438 -54.027916 -91.655258 0.000000 0.000000 -27.660105 0.000000 0.000000 0.000000 90.597519 -2.393603 27.314402 -68.503418 58.179798 -41.497208 0.000000 0.000000 15.321098 
